# xmcd
#
# Track frame offsets: 
#        150
#        20530
#        42747
#        61870
#        79742
#        93677
#        108847
#        126807
#        150320
#        158242
#
# Disc length: 2386 seconds
#
# Revision: 0
# Processed by: cddbd v1.5.2PL0 Copyright (c) Steve Scherf et al.
# Submitted via: ExactAudioCopy v1.0b3
#
DISCID=7709500a
DTITLE=Zé Ramalho - A Peleja Do Diabo Com O Dono Do Céu
DYEAR=1979
DGENRE=Latin-Br-Forro
TTITLE0=A Peleja Do Diabo Com O Dono Do Céu
TTITLE1=Admiravel Gado Novo
TTITLE2=Falas Do Povo
TTITLE3=Beira-Mar
TTITLE4=Garoto De Aluguel (TAXI Boy)
TTITLE5=Pelo Vinho E Pelo Pão
TTITLE6=Mote Das Amplidões
TTITLE7=Jardim Das Acácias
TTITLE8=Agônico
TTITLE9=Frevo Mulher
EXTD=
EXTT0=
EXTT1=
EXTT2=
EXTT3=
EXTT4=
EXTT5=
EXTT6=
EXTT7=
EXTT8=
EXTT9=
PLAYORDER=
